<svg height="512pt" preserveAspectRatio="xMidYMid meet" viewBox="0 0 512 512" width="512pt" xmlns="http://www.w3.org/2000/svg"><g transform="matrix(.1 0 0 -.1 0 512)"><path d="m836 5034c-194-42-364-139-506-290-109-116-182-243-232-405l-23-74-3-1670c-2-1501-1-1678 13-1750 59-293 259-549 530-680 50-24 126-54 170-67l80-23h1695 1695l80 23c356 102 628 393 700 747 14 72 15 249 13 1750l-3 1670-23 74c-66 215-189 392-362 523-77 59-216 128-320 160l-75 23-1680 2c-1452 1-1689 0-1749-13zm3369-114c360-53 662-355 715-715 6-45 10-640 10-1645s-4-1600-10-1645c-53-360-355-662-715-715-96-13-3194-13-3290 0-360 53-662 355-715 715-13 96-13 3194 0 3290 44 304 270 575 564 676 47 16 111 33 143 38 85 13 3212 13 3298 1z"/><path d="m2560 3200v-640h-640-640v-640-640h640 640v640 640h640 640v640 640h-640-640z"/></g></svg>