<svg height="512pt" preserveAspectRatio="xMidYMid meet" viewBox="0 0 512 512" width="512pt" xmlns="http://www.w3.org/2000/svg"><g transform="matrix(.1 0 0 -.1 0 512)"><path d="m2355 5110c-612-49-1190-321-1621-762-198-203-349-415-469-663-126-257-190-462-236-750-31-201-31-549 0-750 46-289 111-496 235-750 202-413 506-757 901-1018 134-88 368-207 520-263 132-48 327-97 500-125 116-18 181-22 375-22 264 0 407 17 645 78 435 110 857 355 1181 687 198 203 349 415 469 663 126 257 190 462 236 750 18 116 22 181 22 375s-4 259-22 375c-46 288-110 493-236 750-246 506-664 924-1170 1170-257 126-468 192-745 234-154 23-434 34-585 21zm610-119c528-95 967-322 1335-691 370-369 596-807 692-1340 20-110 23-158 23-400s-3-290-23-400c-96-533-322-971-692-1340-369-370-807-596-1340-692-110-20-158-23-400-23s-290 3-400 23c-533 96-971 322-1340 692-370 369-596 807-692 1340-20 110-23 158-23 400s3 290 23 400c96 533 322 971 692 1340 388 389 867 626 1420 704 162 23 567 16 725-13z"/><path d="m2560 3200v-640h-640-640v-640-640h640 640v640 640h640 640v640 640h-640-640z"/></g></svg>